<?xml version="1.0" encoding="UTF-8"?>
<svg xmlns="http://www.w3.org/2000/svg" viewBox="0 0 1100 460" font-family="'Hiragino Sans', 'Yu Gothic', 'Meiryo', 'Noto Sans CJK JP', sans-serif">
  <defs>
    <marker id="arrow-blue" viewBox="0 0 10 10" refX="9" refY="5" markerWidth="8" markerHeight="8" orient="auto-start-reverse">
      <path d="M0,0 L10,5 L0,10 z" fill="#60a5fa"/>
    </marker>
    <marker id="arrow-emerald" viewBox="0 0 10 10" refX="9" refY="5" markerWidth="8" markerHeight="8" orient="auto-start-reverse">
      <path d="M0,0 L10,5 L0,10 z" fill="#34d399"/>
    </marker>
  </defs>

  <rect x="60" y="20" width="220" height="60" rx="6" fill="#1e3a8a" stroke="#3b82f6" stroke-width="2"/>
  <text x="170" y="58" text-anchor="middle" fill="#dbeafe" font-size="24" font-weight="bold">ブラウザ</text>

  <rect x="440" y="20" width="220" height="60" rx="6" fill="#1e3a8a" stroke="#3b82f6" stroke-width="2"/>
  <text x="550" y="48" text-anchor="middle" fill="#dbeafe" font-size="22" font-weight="bold">DNSサーバー</text>
  <text x="550" y="70" text-anchor="middle" fill="#93c5fd" font-size="15">（電話帳）</text>

  <rect x="820" y="20" width="220" height="60" rx="6" fill="#1e3a8a" stroke="#3b82f6" stroke-width="2"/>
  <text x="930" y="58" text-anchor="middle" fill="#dbeafe" font-size="22" font-weight="bold">Googleサーバー</text>

  <line x1="170" y1="80" x2="170" y2="380" stroke="#94a3b8" stroke-width="1.5" stroke-dasharray="6 4"/>
  <line x1="550" y1="80" x2="550" y2="380" stroke="#94a3b8" stroke-width="1.5" stroke-dasharray="6 4"/>
  <line x1="930" y1="80" x2="930" y2="380" stroke="#94a3b8" stroke-width="1.5" stroke-dasharray="6 4"/>

  <rect x="60" y="380" width="220" height="60" rx="6" fill="#1e3a8a" stroke="#3b82f6" stroke-width="2"/>
  <text x="170" y="418" text-anchor="middle" fill="#dbeafe" font-size="24" font-weight="bold">ブラウザ</text>

  <rect x="440" y="380" width="220" height="60" rx="6" fill="#1e3a8a" stroke="#3b82f6" stroke-width="2"/>
  <text x="550" y="408" text-anchor="middle" fill="#dbeafe" font-size="22" font-weight="bold">DNSサーバー</text>
  <text x="550" y="430" text-anchor="middle" fill="#93c5fd" font-size="15">（電話帳）</text>

  <rect x="820" y="380" width="220" height="60" rx="6" fill="#1e3a8a" stroke="#3b82f6" stroke-width="2"/>
  <text x="930" y="418" text-anchor="middle" fill="#dbeafe" font-size="22" font-weight="bold">Googleサーバー</text>

  <line x1="170" y1="140" x2="548" y2="140" stroke="#60a5fa" stroke-width="2.5" marker-end="url(#arrow-blue)"/>
  <text x="360" y="128" text-anchor="middle" fill="#93c5fd" font-size="20">google.comのIPアドレスは？</text>

  <line x1="550" y1="220" x2="172" y2="220" stroke="#34d399" stroke-width="2.5" stroke-dasharray="8 5" marker-end="url(#arrow-emerald)"/>
  <text x="360" y="208" text-anchor="middle" fill="#a7f3d0" font-size="20">142.250.196.110 だよ</text>

  <line x1="170" y1="320" x2="928" y2="320" stroke="#60a5fa" stroke-width="2.5" marker-end="url(#arrow-blue)"/>
  <text x="550" y="308" text-anchor="middle" fill="#93c5fd" font-size="20">142.250.196.110 に接続</text>
</svg>
