<?xml version="1.0" encoding="UTF-8"?>
<svg xmlns="http://www.w3.org/2000/svg" viewBox="0 0 1100 540" font-family="'Hiragino Sans', 'Yu Gothic', 'Meiryo', 'Noto Sans CJK JP', sans-serif">
  <defs>
    <marker id="arrow-blue" viewBox="0 0 10 10" refX="9" refY="5" markerWidth="8" markerHeight="8" orient="auto-start-reverse">
      <path d="M0,0 L10,5 L0,10 z" fill="#60a5fa"/>
    </marker>
    <marker id="arrow-emerald" viewBox="0 0 10 10" refX="9" refY="5" markerWidth="8" markerHeight="8" orient="auto-start-reverse">
      <path d="M0,0 L10,5 L0,10 z" fill="#34d399"/>
    </marker>
  </defs>

  <rect x="60" y="20" width="240" height="60" rx="6" fill="#1e3a8a" stroke="#3b82f6" stroke-width="2"/>
  <text x="180" y="58" text-anchor="middle" fill="#dbeafe" font-size="24" font-weight="bold">あなたのPC</text>

  <rect x="430" y="20" width="240" height="60" rx="6" fill="#1e3a8a" stroke="#3b82f6" stroke-width="2"/>
  <text x="550" y="58" text-anchor="middle" fill="#dbeafe" font-size="24" font-weight="bold">DNSサーバー</text>

  <rect x="800" y="20" width="240" height="60" rx="6" fill="#1e3a8a" stroke="#3b82f6" stroke-width="2"/>
  <text x="920" y="48" text-anchor="middle" fill="#dbeafe" font-size="22" font-weight="bold">Webサーバー</text>
  <text x="920" y="70" text-anchor="middle" fill="#93c5fd" font-size="14">（例: google.com）</text>

  <line x1="180" y1="80" x2="180" y2="460" stroke="#94a3b8" stroke-width="1.5" stroke-dasharray="6 4"/>
  <line x1="550" y1="80" x2="550" y2="460" stroke="#94a3b8" stroke-width="1.5" stroke-dasharray="6 4"/>
  <line x1="920" y1="80" x2="920" y2="460" stroke="#94a3b8" stroke-width="1.5" stroke-dasharray="6 4"/>

  <rect x="60" y="460" width="240" height="60" rx="6" fill="#1e3a8a" stroke="#3b82f6" stroke-width="2"/>
  <text x="180" y="498" text-anchor="middle" fill="#dbeafe" font-size="24" font-weight="bold">あなたのPC</text>

  <rect x="430" y="460" width="240" height="60" rx="6" fill="#1e3a8a" stroke="#3b82f6" stroke-width="2"/>
  <text x="550" y="498" text-anchor="middle" fill="#dbeafe" font-size="24" font-weight="bold">DNSサーバー</text>

  <rect x="800" y="460" width="240" height="60" rx="6" fill="#1e3a8a" stroke="#3b82f6" stroke-width="2"/>
  <text x="920" y="488" text-anchor="middle" fill="#dbeafe" font-size="22" font-weight="bold">Webサーバー</text>
  <text x="920" y="510" text-anchor="middle" fill="#93c5fd" font-size="14">（例: google.com）</text>

  <line x1="180" y1="140" x2="548" y2="140" stroke="#60a5fa" stroke-width="2.5" marker-end="url(#arrow-blue)"/>
  <text x="364" y="128" text-anchor="middle" fill="#93c5fd" font-size="20">1. DNSに問い合わせ</text>

  <line x1="550" y1="220" x2="182" y2="220" stroke="#34d399" stroke-width="2.5" stroke-dasharray="8 5" marker-end="url(#arrow-emerald)"/>
  <text x="364" y="208" text-anchor="middle" fill="#a7f3d0" font-size="20">2. IPアドレスを取得</text>

  <line x1="180" y1="310" x2="918" y2="310" stroke="#60a5fa" stroke-width="2.5" marker-end="url(#arrow-blue)"/>
  <text x="550" y="298" text-anchor="middle" fill="#93c5fd" font-size="20">3. パケットで通信（IPアドレス宛）</text>

  <line x1="920" y1="400" x2="182" y2="400" stroke="#34d399" stroke-width="2.5" stroke-dasharray="8 5" marker-end="url(#arrow-emerald)"/>
  <text x="550" y="388" text-anchor="middle" fill="#a7f3d0" font-size="20">3. パケットで通信（IPアドレス宛）</text>
</svg>
