<?xml version="1.0" encoding="UTF-8"?>
<svg xmlns="http://www.w3.org/2000/svg" viewBox="0 0 1000 420" font-family="'Hiragino Sans', 'Yu Gothic', 'Meiryo', 'Noto Sans CJK JP', sans-serif">
  <defs>
    <marker id="arrow-blue" viewBox="0 0 10 10" refX="9" refY="5" markerWidth="8" markerHeight="8" orient="auto-start-reverse">
      <path d="M0,0 L10,5 L0,10 z" fill="#60a5fa"/>
    </marker>
    <marker id="arrow-emerald" viewBox="0 0 10 10" refX="9" refY="5" markerWidth="8" markerHeight="8" orient="auto-start-reverse">
      <path d="M0,0 L10,5 L0,10 z" fill="#34d399"/>
    </marker>
  </defs>

  <rect x="80" y="20" width="320" height="60" rx="6" fill="#1e3a8a" stroke="#3b82f6" stroke-width="2"/>
  <text x="240" y="58" text-anchor="middle" fill="#dbeafe" font-size="22" font-weight="bold">クライアント（ブラウザ）</text>

  <rect x="600" y="20" width="320" height="60" rx="6" fill="#1e3a8a" stroke="#3b82f6" stroke-width="2"/>
  <text x="760" y="58" text-anchor="middle" fill="#dbeafe" font-size="24" font-weight="bold">サーバー</text>

  <line x1="240" y1="80" x2="240" y2="340" stroke="#94a3b8" stroke-width="1.5" stroke-dasharray="6 4"/>
  <line x1="760" y1="80" x2="760" y2="340" stroke="#94a3b8" stroke-width="1.5" stroke-dasharray="6 4"/>

  <rect x="80" y="340" width="320" height="60" rx="6" fill="#1e3a8a" stroke="#3b82f6" stroke-width="2"/>
  <text x="240" y="378" text-anchor="middle" fill="#dbeafe" font-size="22" font-weight="bold">クライアント（ブラウザ）</text>

  <rect x="600" y="340" width="320" height="60" rx="6" fill="#1e3a8a" stroke="#3b82f6" stroke-width="2"/>
  <text x="760" y="378" text-anchor="middle" fill="#dbeafe" font-size="24" font-weight="bold">サーバー</text>

  <line x1="240" y1="130" x2="758" y2="130" stroke="#60a5fa" stroke-width="2.5" marker-end="url(#arrow-blue)"/>
  <text x="500" y="118" text-anchor="middle" fill="#93c5fd" font-size="22">リクエスト（要求）</text>

  <rect x="650" y="155" width="220" height="50" rx="4" fill="#fef3c7" stroke="#d97706" stroke-width="1.5"/>
  <text x="760" y="187" text-anchor="middle" fill="#451a03" font-size="20">要求を処理</text>

  <line x1="760" y1="250" x2="242" y2="250" stroke="#34d399" stroke-width="2.5" stroke-dasharray="8 5" marker-end="url(#arrow-emerald)"/>
  <text x="500" y="238" text-anchor="middle" fill="#a7f3d0" font-size="22">レスポンス（応答）</text>

  <rect x="130" y="275" width="220" height="50" rx="4" fill="#fef3c7" stroke="#d97706" stroke-width="1.5"/>
  <text x="240" y="307" text-anchor="middle" fill="#451a03" font-size="20">画面に表示</text>
</svg>
